<svg version="1.2" xmlns="http://www.w3.org/2000/svg" viewBox="0 0 189 46" width="189" height="46"><defs><clipPath clipPathUnits="userSpaceOnUse" id="cp1"><path d="m0 0h188.93v51.68h-188.93z"/></clipPath></defs><style>.a{fill:#ff595a}.b{fill:#7ca4d7}</style><g clip-path="url(#cp1)"><path class="a" d="m35.2 19.2c-0.4-2.7-2.6-4.9-5.3-5.4-3.2-0.5-5.9 1.1-7.1 3.7-1.2-2.6-4-4.2-7.1-3.7-2.7 0.5-5 2.7-5.4 5.4-0.3 2.3 0.4 4.3 1.9 5.8l9.4 9.3c0.6 0.7 1.7 0.7 2.4 0l9.4-9.3c1.4-1.5 2.2-3.5 1.8-5.8z"/><path class="b" d="m22.8 5.5c-0.4 0-0.8-0.3-0.8-0.7v-3.7c0-0.4 0.4-0.7 0.8-0.7 0.4 0 0.7 0.3 0.7 0.7v3.7c0 0.4-0.3 0.7-0.7 0.7z"/><path class="b" d="m22.8 5.9c-0.6 0-1.1-0.5-1.1-1.1v-3.7c0-0.6 0.5-1.1 1.1-1.1 0.6 0 1.1 0.5 1.1 1.1v3.7c0 0.6-0.5 1.1-1.1 1.1zm0-5.2c-0.2 0-0.4 0.2-0.4 0.4v3.7c0 0.2 0.2 0.4 0.4 0.4 0.2 0 0.3-0.2 0.3-0.4v-3.7c0-0.2-0.1-0.4-0.3-0.4z"/><path class="b" d="m22.8 45.2c-0.4 0-0.8-0.4-0.8-0.8v-3.7c0-0.4 0.4-0.7 0.8-0.7 0.4 0 0.7 0.3 0.7 0.7v3.7c0 0.4-0.3 0.8-0.7 0.8z"/><path class="b" d="m22.8 45.5c-0.6 0-1.1-0.5-1.1-1.1v-3.7c0-0.6 0.5-1.1 1.1-1.1 0.6 0 1.1 0.5 1.1 1.1v3.7c0 0.6-0.5 1.1-1.1 1.1zm0-5.1c-0.2 0-0.4 0.1-0.4 0.3v3.7c0 0.2 0.2 0.4 0.4 0.4 0.2 0 0.3-0.2 0.3-0.4v-3.7c0-0.2-0.1-0.3-0.3-0.3z"/><path class="b" d="m44.4 23.5h-3.7c-0.4 0-0.7-0.3-0.7-0.7 0-0.4 0.3-0.8 0.7-0.8h3.7c0.4 0 0.8 0.4 0.8 0.8 0 0.4-0.4 0.7-0.8 0.7z"/><path class="b" d="m44.4 23.9h-3.7c-0.6 0-1.1-0.5-1.1-1.1 0-0.6 0.5-1.1 1.1-1.1h3.7c0.6 0 1.1 0.5 1.1 1.1 0 0.6-0.5 1.1-1.1 1.1zm-3.7-1.5c-0.2 0-0.3 0.2-0.3 0.4 0 0.2 0.1 0.3 0.3 0.3h3.7c0.2 0 0.4-0.1 0.4-0.3 0-0.2-0.2-0.4-0.4-0.4z"/><path class="b" d="m4.8 23.5h-3.7c-0.4 0-0.7-0.3-0.7-0.7 0-0.4 0.3-0.8 0.7-0.8h3.7c0.4 0 0.7 0.4 0.7 0.8 0 0.4-0.3 0.7-0.7 0.7z"/><path class="b" d="m4.8 23.9h-3.7c-0.6 0-1.1-0.5-1.1-1.1 0-0.6 0.5-1.1 1.1-1.1h3.7c0.6 0 1.1 0.5 1.1 1.1 0 0.6-0.5 1.1-1.1 1.1zm-3.7-1.5c-0.2 0-0.4 0.2-0.4 0.4 0 0.2 0.2 0.3 0.4 0.3h3.7c0.2 0 0.4-0.1 0.4-0.3 0-0.2-0.2-0.4-0.4-0.4h-3.7z"/><path class="b" d="m10.1 10.8q-0.3 0-0.6-0.2l-2.6-2.6c-0.3-0.3-0.3-0.8 0-1.1 0.3-0.3 0.8-0.3 1.1 0l2.6 2.6c0.3 0.3 0.3 0.8 0 1.1q-0.3 0.2-0.5 0.2z"/><path class="b" d="m10.1 11.2q-0.5-0.1-0.8-0.4l-2.6-2.6q-0.3-0.3-0.4-0.8 0.1-0.4 0.4-0.7c0.4-0.5 1.1-0.5 1.5 0l2.6 2.6q0.3 0.3 0.4 0.8-0.1 0.4-0.4 0.7-0.3 0.3-0.7 0.4zm-2.7-4.1q-0.1 0-0.2 0.1-0.1 0.1-0.1 0.2 0 0.2 0.1 0.3l2.6 2.6c0.1 0.2 0.4 0.2 0.5 0q0.1-0.1 0.1-0.2 0-0.2-0.1-0.3l-2.6-2.6q-0.1-0.1-0.3-0.1z"/><path class="b" d="m38.1 38.8q-0.3 0-0.5-0.2l-2.6-2.6c-0.3-0.3-0.3-0.8 0-1 0.2-0.3 0.7-0.3 1 0l2.6 2.6c0.3 0.3 0.3 0.7 0 1q-0.2 0.2-0.5 0.2z"/><path class="b" d="m38.1 39.2q-0.5 0-0.8-0.3l-2.6-2.6c-0.4-0.5-0.4-1.2 0-1.6q0.3-0.3 0.8-0.3 0.4 0 0.7 0.3l2.7 2.6c0.4 0.4 0.4 1.1 0 1.6q-0.4 0.3-0.8 0.3zm-2.6-4.1q-0.2 0-0.3 0.1c-0.1 0.2-0.1 0.4 0 0.5l2.6 2.6c0.2 0.2 0.4 0.2 0.5 0 0.2-0.1 0.2-0.3 0-0.5l-2.6-2.6q-0.1-0.1-0.2-0.1z"/><path class="b" d="m35.5 10.8q-0.3 0-0.5-0.2c-0.3-0.3-0.3-0.8 0-1.1l2.6-2.6c0.3-0.3 0.7-0.3 1 0 0.3 0.3 0.3 0.8 0 1.1l-2.6 2.6q-0.2 0.2-0.5 0.2z"/><path class="b" d="m35.5 11.2q-0.5-0.1-0.8-0.4-0.3-0.3-0.3-0.7 0-0.5 0.3-0.8l2.6-2.6c0.4-0.4 1.2-0.4 1.6 0q0.3 0.3 0.3 0.7 0 0.5-0.3 0.8l-2.6 2.6q-0.4 0.3-0.8 0.4zm2.6-4.1q-0.2 0-0.3 0.1l-2.6 2.6q-0.1 0.1-0.1 0.3 0 0.1 0.1 0.2c0.2 0.2 0.4 0.2 0.5 0l2.6-2.6q0.2-0.1 0.2-0.3 0-0.1-0.2-0.2-0.1-0.1-0.2-0.1z"/><path class="b" d="m7.4 38.8q-0.2 0-0.5-0.2c-0.3-0.3-0.3-0.7 0-1l2.6-2.6c0.3-0.3 0.8-0.3 1.1 0 0.3 0.2 0.3 0.7 0 1l-2.6 2.6q-0.3 0.2-0.6 0.2z"/><path class="b" d="m7.4 39.2q-0.4 0-0.7-0.3-0.3-0.4-0.4-0.8 0.1-0.5 0.4-0.8l2.6-2.6q0.3-0.3 0.8-0.3 0.4 0 0.7 0.3c0.5 0.4 0.5 1.1 0 1.6l-2.6 2.6q-0.3 0.3-0.8 0.3zm2.7-4.1q-0.2 0-0.3 0.1l-2.6 2.6q-0.1 0.1-0.1 0.3 0 0.1 0.1 0.2c0.1 0.2 0.4 0.2 0.5 0l2.6-2.6c0.2-0.1 0.2-0.3 0-0.5q-0.1-0.1-0.2-0.1z"/><path class="b" d="m15.9 6.9c-0.3 0-0.6-0.2-0.7-0.5l-1.4-3.4c-0.2-0.3 0-0.8 0.4-0.9 0.4-0.2 0.8 0 0.9 0.4l1.5 3.4c0.1 0.4-0.1 0.8-0.4 0.9q-0.2 0.1-0.3 0.1z"/><path class="b" d="m15.9 7.3c-0.5 0-0.9-0.3-1-0.7l-1.4-3.4c-0.3-0.6 0-1.2 0.6-1.5 0.5-0.2 1.2 0.1 1.4 0.6l1.4 3.4c0.2 0.6 0 1.2-0.6 1.5q-0.2 0.1-0.4 0.1zm-1.4-4.9q-0.1 0-0.2 0c-0.2 0.1-0.2 0.3-0.2 0.5l1.4 3.4c0.1 0.2 0.3 0.3 0.5 0.2 0.2-0.1 0.3-0.3 0.2-0.5l-1.4-3.4c0-0.1-0.2-0.2-0.3-0.2z"/><path class="b" d="m31.1 43.5c-0.3 0-0.6-0.2-0.7-0.4l-1.4-3.4c-0.2-0.4 0-0.8 0.4-1 0.3-0.2 0.8 0 0.9 0.4l1.4 3.4c0.2 0.4 0 0.8-0.4 1q-0.1 0-0.2 0z"/><path class="b" d="m31.1 43.9c-0.5 0-0.9-0.3-1.1-0.7l-1.4-3.4c-0.2-0.6 0.1-1.2 0.6-1.4 0.6-0.3 1.2 0 1.5 0.6l1.4 3.4q0.1 0.4 0 0.8-0.2 0.4-0.6 0.6-0.2 0.1-0.4 0.1zm-1.5-4.9q0 0-0.1 0c-0.2 0.1-0.3 0.3-0.2 0.5l1.4 3.4c0.1 0.2 0.3 0.3 0.5 0.2q0.1 0 0.2-0.2 0.1-0.1 0-0.3l-1.4-3.4c-0.1-0.1-0.2-0.2-0.4-0.2z"/><path class="b" d="m39.4 16.6c-0.3 0-0.6-0.2-0.7-0.4-0.2-0.4 0-0.8 0.4-1l3.4-1.4c0.4-0.2 0.8 0 1 0.4 0.1 0.4-0.1 0.8-0.4 0.9l-3.4 1.5q-0.2 0-0.3 0z"/><path class="b" d="m39.4 17c-0.5 0-0.9-0.3-1-0.7-0.3-0.6 0-1.2 0.6-1.4l3.4-1.4q0.4-0.2 0.8 0 0.4 0.1 0.6 0.6c0.2 0.5 0 1.2-0.6 1.4l-3.4 1.4q-0.2 0.1-0.4 0.1zm3.4-2.9q-0.1 0-0.2 0l-3.4 1.4c-0.2 0.1-0.2 0.3-0.2 0.5 0.1 0.2 0.3 0.3 0.5 0.2l3.4-1.4c0.2-0.1 0.3-0.3 0.2-0.5q0-0.1-0.2-0.2 0 0-0.1 0z"/><path class="b" d="m2.7 31.8c-0.2 0-0.5-0.2-0.6-0.5-0.2-0.3 0-0.8 0.4-0.9l3.4-1.4c0.4-0.2 0.8 0 0.9 0.4 0.2 0.3 0 0.8-0.4 0.9l-3.4 1.4q-0.1 0.1-0.3 0.1z"/><path class="b" d="m2.7 32.2c-0.4 0-0.8-0.3-1-0.7-0.2-0.6 0.1-1.2 0.6-1.5l3.4-1.4q0.5-0.1 0.9 0 0.4 0.2 0.6 0.6c0.2 0.6-0.1 1.2-0.6 1.5l-3.4 1.4q-0.2 0.1-0.5 0.1zm3.5-2.9q-0.1 0-0.2 0l-3.4 1.4c-0.2 0.1-0.3 0.3-0.2 0.5 0.1 0.2 0.3 0.3 0.5 0.2l3.4-1.4c0.2-0.1 0.3-0.3 0.2-0.5q-0.1-0.1-0.2-0.2-0.1 0-0.1 0z"/><path class="b" d="m6.2 16.6q-0.2 0-0.3 0l-3.4-1.5c-0.4-0.1-0.6-0.5-0.4-0.9 0.1-0.4 0.6-0.6 0.9-0.4l3.4 1.4c0.4 0.2 0.6 0.6 0.4 1-0.1 0.2-0.4 0.4-0.6 0.4z"/><path class="b" d="m6.2 17q-0.3 0-0.5-0.1l-3.4-1.4c-0.5-0.2-0.8-0.9-0.6-1.4 0.3-0.6 0.9-0.9 1.5-0.6l3.4 1.4c0.5 0.2 0.8 0.8 0.6 1.4-0.2 0.4-0.6 0.7-1 0.7zm-3.5-2.9c-0.1 0-0.2 0.1-0.3 0.2-0.1 0.2 0 0.4 0.2 0.5l3.4 1.4c0.2 0.1 0.4 0 0.5-0.2 0.1-0.2 0-0.4-0.2-0.5l-3.4-1.4q-0.1 0-0.2 0z"/><path class="b" d="m42.8 31.8q-0.2 0-0.3-0.1l-3.4-1.4c-0.4-0.1-0.6-0.6-0.4-0.9 0.1-0.4 0.6-0.6 0.9-0.4l3.5 1.4c0.3 0.1 0.5 0.6 0.4 0.9-0.2 0.3-0.4 0.5-0.7 0.5z"/><path class="b" d="m42.8 32.2q-0.2 0-0.4-0.1l-3.4-1.4c-0.6-0.3-0.9-0.9-0.6-1.5 0.2-0.5 0.8-0.8 1.4-0.6l3.4 1.4c0.6 0.3 0.8 0.9 0.6 1.5-0.2 0.4-0.6 0.7-1 0.7zm-3.4-2.9c-0.2 0-0.3 0.1-0.4 0.2 0 0.2 0 0.4 0.2 0.5l3.4 1.4c0.2 0.1 0.4 0 0.5-0.2 0.1-0.2 0-0.4-0.2-0.5l-3.4-1.4q-0.1 0-0.1 0z"/><path class="b" d="m29.6 6.9q-0.1 0-0.2-0.1c-0.4-0.1-0.6-0.5-0.4-0.9l1.4-3.4c0.1-0.4 0.6-0.6 0.9-0.4 0.4 0.1 0.6 0.5 0.4 0.9l-1.4 3.4c-0.1 0.3-0.4 0.5-0.7 0.5z"/><path class="b" d="m29.6 7.3q-0.2 0-0.4-0.1c-0.5-0.3-0.8-0.9-0.6-1.5l1.4-3.4q0.2-0.4 0.6-0.6 0.5-0.1 0.9 0c0.5 0.3 0.8 0.9 0.6 1.5l-1.4 3.4c-0.2 0.4-0.6 0.7-1.1 0.7zm1.5-4.9q-0.1 0-0.2 0-0.1 0.1-0.2 0.2l-1.4 3.4c-0.1 0.2 0 0.4 0.2 0.5 0.2 0.1 0.4 0 0.5-0.2l1.4-3.4c0.1-0.2 0-0.4-0.2-0.5q-0.1 0-0.1 0z"/><path class="b" d="m14.5 43.5q-0.2 0-0.3 0c-0.4-0.2-0.6-0.6-0.4-1l1.4-3.4c0.2-0.4 0.6-0.6 1-0.4 0.3 0.2 0.5 0.6 0.4 1l-1.5 3.4c-0.1 0.2-0.3 0.4-0.6 0.4z"/><path class="b" d="m14.5 43.9q-0.2 0-0.4-0.1c-0.6-0.2-0.9-0.9-0.6-1.4l1.4-3.4c0.2-0.6 0.8-0.9 1.4-0.6 0.6 0.2 0.8 0.8 0.6 1.4l-1.4 3.4c-0.2 0.4-0.6 0.7-1 0.7zm1.4-4.9c-0.2 0-0.3 0.1-0.3 0.2l-1.5 3.4c0 0.2 0 0.4 0.2 0.5 0.2 0.1 0.4 0 0.5-0.2l1.4-3.4c0.1-0.2 0-0.4-0.2-0.5q0 0-0.1 0z"/><path  d="m70.4 15.5v5.7c-1.5-1-4.1-1.7-6.5-1.7-1.6 0-2.5 0.4-2.5 1.2 0 0.8 1 1.2 3.2 1.8 3.5 0.8 7.2 2 7.2 6.5 0 4.4-3.4 6.9-9.3 6.9-3.1 0-5.8-0.7-7.6-1.8v-6.2c1.9 1.4 4.2 2.4 7.3 2.4 1.8 0 2.8-0.4 2.8-1.3 0-1-1.3-1.3-3.9-2-3.2-0.9-6.4-2.4-6.4-6.2 0-3.9 3.3-6.9 8.9-6.9 2.5 0 5.1 0.6 6.8 1.6z"/><path  d="m85.5 29.7c1.7 0 3.4-0.3 5.1-1.5v6.3c-1.8 0.9-4 1.4-6.2 1.4-6.3 0-11.2-4.5-11.2-11 0-6.5 4.9-11 11.2-11 2.1 0 4.4 0.4 6.2 1.4v6.3c-1.7-1.1-3.3-1.5-5.1-1.5-2.9 0-5.3 1.9-5.3 4.8 0 3 2.4 4.8 5.3 4.8z"/><path  d="m93.6 14.4h5.6l0.7 3.1c1.4-2.5 3.7-3.3 5.6-3.3 0.7 0 1.2 0.1 1.7 0.2v6.5c-0.6-0.2-1.3-0.2-1.9-0.2-2.4 0-4.7 1.2-4.7 5v9.7h-7v-21z"/><path  d="m107.6 25c0-6.7 4.6-11.1 9.2-11.1 3.2 0 5.4 1.6 6.7 3.5l0.6-3h6v21h-6l-0.6-3c-1.3 1.9-3.5 3.5-6.7 3.5-4.6 0-9.2-4.4-9.2-10.9zm15.6-0.1c0-2.8-1.8-4.8-4.2-4.8-2.5 0-4.4 2.1-4.4 4.8 0 2.7 1.8 4.8 4.4 4.8 2.5 0 4.2-2 4.2-4.8z"/><path  d="m141.7 14.4h5.5v5.8h-5.5v6.4c0 2.4 1.7 3.3 3.9 3.3q0.9 0 1.9-0.2v5.8c-1 0.2-2 0.4-3.6 0.4-5.9 0-8.9-3.5-8.9-8.9v-6.8h-2.9v-5.8h2.9v-4.8h6.7v4.8z"/><path  d="m161 29.7c1.7 0 3.5-0.3 5.2-1.5v6.3c-1.8 0.9-4.1 1.4-6.3 1.4-6.3 0-11.2-4.5-11.2-11 0-6.5 5-11 11.2-11 2.1 0 4.4 0.4 6.3 1.4v6.3c-1.7-1.1-3.4-1.5-5.2-1.5-2.9 0-5.2 1.9-5.2 4.8 0 3 2.3 4.8 5.2 4.8z"/><path  d="m176.1 16.3h0.1c1.1-1.4 3.1-2.4 5.5-2.4 4.4 0 7.2 2.7 7.2 7.4v14.1h-6.9v-12.2c0-2.1-1-3.1-2.8-3.1-1.8 0-3.1 1.2-3.1 3v12.3h-6.9v-30.2h6.9v11.1z"/><path  d="m41 40.7c0 0.4-0.3 0.7-0.7 0.7-0.4 0-0.7-0.3-0.7-0.7 0-0.4 0.3-0.7 0.7-0.7 0.4 0 0.7 0.3 0.7 0.7zm-0.1 0c0-0.3-0.3-0.6-0.6-0.6-0.4 0-0.6 0.3-0.6 0.6 0 0.3 0.2 0.6 0.6 0.6 0.3 0 0.6-0.3 0.6-0.6zm-0.6 0l0.3 0.4h-0.2l-0.2-0.3v0.3h-0.1v-0.8h0.2c0.2 0 0.3 0.1 0.3 0.2 0 0.2-0.2 0.2-0.3 0.2zm-0.1 0q0.2 0 0.2-0.2 0-0.1-0.2-0.1v0.3z"/></g></svg>